<?xml version="1.0" encoding="utf-8"?>
<!-- Generator: Adobe Illustrator 25.2.1, SVG Export Plug-In . SVG Version: 6.00 Build 0)  -->
<svg version="1.1" id="Layer_1" xmlns="http://www.w3.org/2000/svg" xmlns:xlink="http://www.w3.org/1999/xlink" x="0px" y="0px"
	 viewBox="0 0 2578.2 400.3" style="enable-background:new 0 0 2578.2 400.3;" xml:space="preserve">
<style type="text/css">
	.st0{fill:#C69C6D;}
	.st1{fill:#E6B67A;}
	.st2{fill:#FFD07A;}
	.st3{fill:#269E32;}
	.st4{fill:#39B54A;}
	.st5{fill:#00FF00;}
</style>
<g>
	<g id="Layer_2_1_">
		<g id="Layer_1-2">
			<g>
				<g>
					<g>
						
							<rect x="310.1" y="0.5" transform="matrix(0.9784 -0.2065 0.2065 0.9784 2.7815 65.3708)" class="st0" width="8.8" height="37.7"/>
						
							<rect x="312" y="15" transform="matrix(0.2065 -0.9784 0.9784 0.2065 243.5912 339.1087)" class="st0" width="37.7" height="8.8"/>
						<rect x="318.3" y="0.5" class="st0" width="8.8" height="37.7"/>
					</g>
					<rect x="320.5" y="1.9" class="st1" width="4.1" height="35.9"/>
					
						<rect x="312.4" y="17.9" transform="matrix(0.2387 -0.9711 0.9711 0.2387 232.1749 335.9385)" class="st1" width="35.9" height="4.1"/>
					
						<rect x="312.4" y="1.4" transform="matrix(0.9784 -0.2065 0.2065 0.9784 2.7818 65.37)" class="st1" width="4.1" height="35.9"/>
				</g>
				
					<rect x="321.4" y="12.5" transform="matrix(0.2387 -0.9711 0.9711 0.2387 239.817 332.5057)" class="st2" width="21.1" height="1.6"/>
				<rect x="321.8" y="2.7" class="st2" width="1.6" height="20.5"/>
				
					<rect x="312.3" y="2.3" transform="matrix(0.9784 -0.2065 0.2065 0.9784 4.0755 64.9543)" class="st2" width="1.6" height="21.2"/>
			</g>
			<g>
				<g>
					<g>
						
							<rect x="326.5" y="361.6" transform="matrix(0.9784 -0.2065 0.2065 0.9784 -71.4493 76.5451)" class="st0" width="8.8" height="37.7"/>
						
							<rect x="295.6" y="376.1" transform="matrix(0.2065 -0.9784 0.9784 0.2065 -122.7425 609.5707)" class="st0" width="37.7" height="8.8"/>
						<rect x="318.3" y="361.6" class="st0" width="8.8" height="37.7"/>
					</g>
					<rect x="320.8" y="362" class="st1" width="4.1" height="35.9"/>
					
						<rect x="297" y="377.9" transform="matrix(0.2387 -0.9711 0.9711 0.2387 -129.1434 595.1511)" class="st1" width="35.9" height="4.1"/>
					
						<rect x="328.8" y="362.5" transform="matrix(0.9784 -0.2065 0.2065 0.9784 -71.4469 76.5452)" class="st1" width="4.1" height="35.9"/>
				</g>
				
					<rect x="302.8" y="385.7" transform="matrix(0.2387 -0.9711 0.9711 0.2387 -136.7941 598.5619)" class="st2" width="21.1" height="1.6"/>
				<rect x="322" y="376.6" class="st2" width="1.6" height="20.5"/>
				
					<rect x="331.4" y="376.2" transform="matrix(0.9784 -0.2065 0.2065 0.9784 -72.7435 76.9616)" class="st2" width="1.6" height="21.2"/>
			</g>
			<g>
				<g>
					<g>
						
							<rect x="3.8" y="0.6" transform="matrix(0.9784 -0.2065 0.2065 0.9784 -3.8473 2.1123)" class="st0" width="8.8" height="37.7"/>
						
							<rect x="5.7" y="15.1" transform="matrix(0.2065 -0.9784 0.9784 0.2065 0.4362 39.5282)" class="st0" width="37.7" height="8.8"/>
						<rect x="12" y="0.6" class="st0" width="8.8" height="37.7"/>
					</g>
					<rect x="14.2" y="2" class="st1" width="4.1" height="35.9"/>
					
						<rect x="6.1" y="18" transform="matrix(0.2387 -0.9711 0.9711 0.2387 -1.1061 38.6034)" class="st1" width="35.9" height="4.1"/>
					
						<rect x="6.2" y="1.5" transform="matrix(0.9784 -0.2065 0.2065 0.9784 -3.8477 2.112)" class="st1" width="4.1" height="35.9"/>
				</g>
				
					<rect x="15.1" y="12.6" transform="matrix(0.2387 -0.9711 0.9711 0.2387 6.5136 35.1761)" class="st2" width="21.1" height="1.6"/>
				<rect x="15.5" y="2.8" class="st2" width="1.6" height="20.5"/>
				
					<rect x="6.1" y="2.5" transform="matrix(0.9784 -0.2065 0.2065 0.9784 -2.5539 1.6962)" class="st2" width="1.6" height="21.2"/>
			</g>
			<g>
				<path class="st3" d="M335.4,377.2V23.3h-25.5V182H170.3v16.7h139.6v178.6H335.4z"/>
				<g>
					<g>
						<rect x="318.9" y="23.3" class="st4" width="9.6" height="353.9"/>
						<rect x="321.5" y="23.3" class="st5" width="4.4" height="353.9"/>
					</g>
					<g>
						<rect x="170.3" y="185.5" class="st4" width="151.2" height="9.6"/>
						<rect x="170.3" y="188.1" class="st5" width="151.2" height="4.4"/>
					</g>
				</g>
			</g>
			<path d="M46.7,78.3h86.7l26.2,105l8.9,41.6h2l8.9-41.6l26.3-105h86.7v322h-70.4v-75.8c0-38.1,6.9-125.8,10.9-163.5h-1.5
				l-27.2,95.6l-16.8,58.5h-37.7l-17.8-58.5L107.2,161h-2c4,37.7,10.9,125.4,10.9,163.5v75.8H46.7V78.3z"/>
			<g>
				<path d="M406.5,225.6l57.5,0.2l56,171.9h-63.5l-9.2-28.5h-41l-6.9,28.5l-51.7,0.2L406.5,225.6z M438.1,340.8l-13.9-44l-10.7,44
					H438.1z"/>
				<path d="M598.1,397.4V254.5h-57.5V226h171.7v29h-56.9v142.6L598.1,397.4z"/>
				<path d="M812.7,397.4V254.5h-57.5V226h171.7v29H870v142.6L812.7,397.4z"/>
			</g>
			<g>
				<path d="M1076,399.8V142.3l85.8,0.2V250h86.2l-0.4-107.5h85.6l0.2,257.2l-85.8,0.2l0.5-107h-86.2v106.6L1076,399.8z"/>
				<path d="M1414.2,227.7l57.5,0.2l56,171.9h-63.5l-9.2-28.5h-41l-6.9,28.5l-51.7,0.2L1414.2,227.7z M1445.7,343l-13.9-44l-10.8,44
					H1445.7z"/>
				<path d="M1548.3,399.8V228.2h114.4c38.2,0,57.3,9.5,57.3,28.5V285c-0.1,19.5-14.2,29.1-42.3,29c28,0.4,42.1,9.9,42.3,28.5v57.3
					h-57.3v-71.4h-57.1l0.2,71.4H1548.3z M1662.6,256.7h-57.1v42.9h57.1V256.7z"/>
				<path d="M1762.8,399.8V228.2h114.4c38.2,0,57.3,9.5,57.3,28.5V285c-0.1,19.5-14.2,29.1-42.3,29c28,0.4,42.1,9.9,42.3,28.5v57.3
					h-57.3v-71.4h-57.1l0.2,71.4H1762.8z M1877.2,256.7h-57.1v42.9h57.1V256.7z"/>
				<path d="M1977.2,399.8V227.9H2149v28.5h-114.5v43.3l86-0.2v29h-86v42.5H2149v28.7H1977.2z"/>
				<path d="M2249,228.2V371h114.6v28.8h-171.9V227.9L2249,228.2z"/>
				<path d="M2463.6,228.2V371h114.6v28.8h-171.9V227.9L2463.6,228.2z"/>
			</g>
			<g>
				<g>
					<g>
						
							<rect x="20.2" y="362.1" transform="matrix(0.9784 -0.2065 0.2065 0.9784 -78.1533 13.2923)" class="st0" width="8.8" height="37.7"/>
						
							<rect x="-10.7" y="376.5" transform="matrix(0.2065 -0.9784 0.9784 0.2065 -366.2228 310.2646)" class="st0" width="37.7" height="8.8"/>
						<rect x="12" y="362.1" class="st0" width="8.8" height="37.7"/>
					</g>
					<rect x="14.5" y="362.5" class="st1" width="4.1" height="35.9"/>
					
						<rect x="-9.2" y="378.4" transform="matrix(0.2387 -0.9711 0.9711 0.2387 -362.7827 298.0939)" class="st1" width="35.9" height="4.1"/>
					
						<rect x="22.6" y="363" transform="matrix(0.9784 -0.2065 0.2065 0.9784 -78.1506 13.2934)" class="st1" width="4.1" height="35.9"/>
				</g>
				
					<rect x="-3.5" y="386.2" transform="matrix(0.2387 -0.9711 0.9711 0.2387 -370.4062 301.4847)" class="st2" width="21.1" height="1.6"/>
				<rect x="15.7" y="377.1" class="st2" width="1.6" height="20.5"/>
				
					<rect x="25.2" y="376.7" transform="matrix(0.9784 -0.2065 0.2065 0.9784 -79.4443 13.7132)" class="st2" width="1.6" height="21.2"/>
			</g>
			<path class="st3" d="M170.3,198.7V182H29.2V23.3H3.7v353.9h25.5V198.7H170.3z"/>
			<g>
				<g>
					<rect x="12.1" y="23.2" class="st4" width="9.6" height="353.9"/>
					<rect x="14.8" y="23.2" class="st5" width="4.4" height="353.9"/>
				</g>
				<g>
					<rect x="19.1" y="185.3" class="st4" width="151.2" height="9.6"/>
					<rect x="19.1" y="188" class="st5" width="151.2" height="4.4"/>
				</g>
			</g>
		</g>
	</g>
</g>
</svg>
