<svg xmlns="http://www.w3.org/2000/svg" width="2578.16" height="400.31" viewBox="0 0 2578.16 400.31">
  <g style="isolation: isolate">
    <g id="Layer_2" data-name="Layer 2">
      <g id="Layer_1-2" data-name="Layer 1">
        <g>
          <g>
            <g>
              <rect x="310.08" y="0.5" width="8.79" height="37.73" transform="translate(2.78 65.37) rotate(-11.92)" fill="#c69c6d"/>
              <rect x="326.47" y="0.5" width="8.79" height="37.73" transform="translate(650.61 106.65) rotate(-168.08)" fill="#c69c6d"/>
              <rect x="318.28" y="0.5" width="8.79" height="37.73" fill="#c69c6d"/>
            </g>
            <rect x="320.53" y="1.91" width="4.06" height="35.94" fill="#e6b67a"/>
            <rect x="328.32" y="1.91" width="4.06" height="35.94" transform="translate(14.29 -78.27) rotate(13.81)" fill="#e6b67a"/>
            <rect x="312.45" y="1.4" width="4.06" height="35.94" transform="translate(626.17 -26.64) rotate(168.08)" fill="#e6b67a"/>
          </g>
          <rect x="331.17" y="2.75" width="1.58" height="21.15" transform="translate(651.16 105.48) rotate(-166.19)" fill="#ffd07a"/>
          <rect x="321.77" y="2.66" width="1.58" height="20.51" transform="translate(645.12 25.84) rotate(180)" fill="#ffd07a"/>
          <rect x="312.33" y="2.33" width="1.58" height="21.25" transform="translate(622.17 -39.04) rotate(168.08)" fill="#ffd07a"/>
        </g>
        <g>
          <g>
            <g>
              <rect x="326.47" y="361.6" width="8.79" height="37.73" transform="translate(733.19 684.39) rotate(168.08)" fill="#c69c6d"/>
              <rect x="310.08" y="361.6" width="8.79" height="37.73" transform="translate(85.36 -56.75) rotate(11.92)" fill="#c69c6d"/>
              <rect x="318.28" y="361.6" width="8.79" height="37.73" transform="translate(645.35 760.93) rotate(180)" fill="#c69c6d"/>
            </g>
            <rect x="320.76" y="361.97" width="4.06" height="35.94" transform="translate(645.57 759.89) rotate(180)" fill="#e6b67a"/>
            <rect x="312.97" y="361.97" width="4.06" height="35.94" transform="translate(530.21 824.09) rotate(-166.19)" fill="#e6b67a"/>
            <rect x="328.84" y="362.49" width="4.06" height="35.94" transform="translate(-71.44 76.54) rotate(-11.92)" fill="#e6b67a"/>
          </g>
          <rect x="312.59" y="375.94" width="1.58" height="21.15" transform="translate(101.3 -63.62) rotate(13.81)" fill="#ffd07a"/>
          <rect x="321.99" y="376.65" width="1.58" height="20.51" fill="#ffd07a"/>
          <rect x="331.43" y="376.25" width="1.58" height="21.25" transform="translate(-72.74 76.96) rotate(-11.92)" fill="#ffd07a"/>
        </g>
        <g>
          <g>
            <g>
              <rect x="3.8" y="0.62" width="8.79" height="37.73" transform="translate(-3.85 2.11) rotate(-11.92)" fill="#c69c6d"/>
              <rect x="20.2" y="0.62" width="8.79" height="37.73" transform="translate(44.63 43.64) rotate(-168.08)" fill="#c69c6d"/>
              <rect x="12" y="0.62" width="8.79" height="37.73" fill="#c69c6d"/>
            </g>
            <rect x="14.25" y="2.04" width="4.06" height="35.94" fill="#e6b67a"/>
            <rect x="22.04" y="2.04" width="4.06" height="35.94" transform="translate(5.47 -5.17) rotate(13.81)" fill="#e6b67a"/>
            <rect x="6.17" y="1.52" width="4.06" height="35.94" transform="translate(20.24 36.86) rotate(168.08)" fill="#e6b67a"/>
          </g>
          <rect x="24.89" y="2.87" width="1.58" height="21.15" transform="translate(47.42 32.62) rotate(-166.19)" fill="#ffd07a"/>
          <rect x="15.49" y="2.79" width="1.58" height="20.51" transform="translate(32.56 26.08) rotate(180)" fill="#ffd07a"/>
          <rect x="6.05" y="2.45" width="1.58" height="21.25" transform="translate(16.24 24.46) rotate(168.08)" fill="#ffd07a"/>
        </g>
        <g>
          <path d="M335.44,377.25V23.32H309.92V182H170.3v16.7H309.92V377.25Z" fill="#269e32"/>
          <g>
            <g>
              <rect x="146.71" y="195.46" width="353.92" height="9.65" transform="translate(523.96 -123.39) rotate(90)" fill="#39b54a"/>
              <rect x="146.71" y="198.1" width="353.92" height="4.36" transform="translate(523.96 -123.39) rotate(90)" fill="lime" style="mix-blend-mode: lighten"/>
            </g>
            <g>
              <rect x="170.3" y="185.48" width="151.19" height="9.65" fill="#39b54a"/>
              <rect x="170.3" y="188.12" width="151.19" height="4.36" fill="lime" style="mix-blend-mode: lighten"/>
            </g>
          </g>
        </g>
        <path d="M46.7,78.26h86.71l26.25,105,8.92,41.61h2l8.92-41.61,26.26-105h86.71V400.31H222.09V324.5c0-38.15,6.94-125.84,10.9-163.5H231.5l-27.25,95.62-16.84,58.47H149.75l-17.83-58.47L107.15,161h-2c4,37.66,10.9,125.35,10.9,163.5v75.81H46.7Z"/>
        <g>
          <path d="M406.51,225.57l57.5.21,56,171.86H456.5l-9.22-28.53h-41l-6.87,28.53-51.71.22Zm31.54,115.21-13.94-44-10.73,44Z"/>
          <path d="M598.11,397.43V254.53h-57.5V226H712.26v29H655.4V397.64Z"/>
          <path d="M812.67,397.43V254.53h-57.5V226H926.82v29H870V397.64Z"/>
        </g>
        <g>
          <path d="M1076,399.8V142.33l85.82.22V250h86.25l-.43-107.49h85.61l.22,257.25-85.83.22L1248.1,293h-86.25V399.59Z"/>
          <path d="M1414.17,227.73l57.51.21,56,171.86h-63.51l-9.23-28.53h-41l-6.87,28.53-51.71.22ZM1445.71,343l-13.94-44L1421,343Z"/>
          <path d="M1548.27,399.8V228.16h114.36q57.3,0,57.29,28.53V285q-.21,29.19-42.27,29,42.06.64,42.27,28.54V399.8h-57.29V328.35h-57.07l.22,71.45Zm114.36-143.11h-57.07V299.6h57.07Z"/>
          <path d="M1762.83,399.8V228.16h114.36q57.3,0,57.29,28.53V285q-.21,29.19-42.27,29,42.06.64,42.27,28.54V399.8h-57.29V328.35h-57.07l.22,71.45Zm114.36-143.11h-57.07V299.6h57.07Z"/>
          <path d="M1977.18,399.8V227.94H2149v28.54H2034.47v43.34l86-.22v29h-86v42.48H2149V399.8Z"/>
          <path d="M2249,228.16V371.05H2363.6V399.8H2191.74V227.94Z"/>
          <path d="M2463.59,228.16V371.05h114.57V399.8H2406.3V227.94Z"/>
        </g>
        <g>
          <g>
            <g>
              <rect x="20.2" y="362.07" width="8.79" height="37.73" transform="translate(127.33 748.59) rotate(168.08)" fill="#c69c6d"/>
              <rect x="3.8" y="362.07" width="8.79" height="37.73" transform="translate(78.85 6.52) rotate(11.92)" fill="#c69c6d"/>
              <rect x="12" y="362.07" width="8.79" height="37.73" transform="translate(32.79 761.88) rotate(180)" fill="#c69c6d"/>
            </g>
            <rect x="14.48" y="362.45" width="4.06" height="35.94" transform="translate(33.02 760.84) rotate(180)" fill="#e6b67a"/>
            <rect x="6.69" y="362.45" width="4.06" height="35.94" transform="translate(-73.61 751.93) rotate(-166.19)" fill="#e6b67a"/>
            <rect x="22.56" y="362.97" width="4.06" height="35.94" transform="translate(-78.15 13.29) rotate(-11.92)" fill="#e6b67a"/>
          </g>
          <rect x="6.31" y="376.41" width="1.58" height="21.15" transform="translate(92.56 9.49) rotate(13.81)" fill="#ffd07a"/>
          <rect x="15.72" y="377.13" width="1.58" height="20.51" fill="#ffd07a"/>
          <rect x="25.16" y="376.72" width="1.58" height="21.25" transform="translate(-79.44 13.71) rotate(-11.92)" fill="#ffd07a"/>
        </g>
        <path d="M170.3,198.68V182H29.22V23.32H3.71V377.25H29.22V198.68Z" fill="#269e32"/>
        <g>
          <g>
            <rect x="-160.02" y="195.3" width="353.92" height="9.65" transform="translate(217.06 183.19) rotate(90)" fill="#39b54a"/>
            <rect x="-160.02" y="197.94" width="353.92" height="4.36" transform="translate(217.06 183.19) rotate(90)" fill="lime" style="mix-blend-mode: lighten"/>
          </g>
          <g>
            <rect x="19.12" y="185.32" width="151.19" height="9.65" transform="translate(189.43 380.29) rotate(-180)" fill="#39b54a"/>
            <rect x="19.12" y="187.96" width="151.19" height="4.36" transform="translate(189.43 380.29) rotate(-180)" fill="lime" style="mix-blend-mode: lighten"/>
          </g>
        </g>
      </g>
    </g>
  </g>
</svg>
